<?xml version="1.0" encoding="utf-8"?>
<!-- Generator: Adobe Illustrator 18.1.1, SVG Export Plug-In . SVG Version: 6.00 Build 0)  -->
<svg version="1.1" id="Слой_1" xmlns="http://www.w3.org/2000/svg" xmlns:xlink="http://www.w3.org/1999/xlink" x="0px" y="0px"
	 viewBox="0 0 841.9 595.3" enable-background="new 0 0 841.9 595.3" xml:space="preserve">
<path fill="#FFFFFF" d="M216.3,0c-15.5,0-27.9,12.4-27.9,27.9v137.3l-26.7-26.9c-10.9-10.9-28.6-10.9-39.4,0s-10.9,28.6,0,39.4
	l74.4,74.4c10.9,10.9,28.6,10.9,39.4,0l74.4-74.4c10.9-10.9,10.9-28.6,0-39.4c-10.9-10.8-28.6-10.9-39.4,0l-26.7,26.7V27.9
	c0-15.5-12.4-27.9-27.9-27.9H216.3z M467.5,232.5c0-25.7-20.8-46.5-46.5-46.5s-46.5,20.8-46.5,46.5s20.8,46.5,46.5,46.5
	S467.5,258.2,467.5,232.5z M262.8,344.1c0-25.7-20.8-46.5-46.5-46.5c-25.7,0-46.5,20.8-46.5,46.5c0,25.7,20.8,46.5,46.5,46.5
	C242,390.7,262.8,369.8,262.8,344.1z M625.6,390.7c25.7,0,46.5-20.8,46.5-46.5c0-25.7-20.8-46.5-46.5-46.5s-46.5,20.8-46.5,46.5
	C579.1,369.8,599.9,390.7,625.6,390.7z M281.4,513.3l31.3,58c7.3,13.6,24.2,18.6,37.8,11.4c13.6-7.2,18.6-24.2,11.4-37.8l-42.2-78.5
	c2-2,3.7-4.2,5-6.7l31.2-58v63.4c0,20.6,16.6,37.2,37.2,37.2h55.8c20.6,0,37.2-16.6,37.2-37.2v-63.4l31.3,58c1.4,2.6,3,4.8,5,6.7
	l-42.2,78.5c-7.3,13.6-2.2,30.5,11.4,37.8c13.6,7.3,30.5,2.2,37.8-11.4l31.2-58v44.8c0,20.6,16.6,37.2,37.2,37.2h55.8
	c20.6,0,37.2-16.6,37.2-37.2v-44.8l31.3,58c7.3,13.6,24.2,18.6,37.8,11.4c13.6-7.2,18.6-24.2,11.4-37.8l-44.1-81.7
	c-17.8-33.1-52.4-53.8-90.1-53.8h-22.8c-19,0-37.1,5.2-52.8,14.6l-39.1-72.4c-17.8-33.1-52.4-53.8-90.1-53.8h-22.7
	c-37.7,0-72.2,20.7-90.1,53.8L280.4,424c-15.7-9.4-33.8-14.6-52.8-14.6h-22.7c-37.7,0-72.2,20.7-90.1,53.8l-43.9,81.6
	c-7.3,13.6-2.2,30.5,11.4,37.8s30.5,2.2,37.8-11.4l31.2-57.9v44.8c0,20.6,16.6,37.2,37.2,37.2h55.8c20.6,0,37.2-16.6,37.2-37.2
	V513.3z M531.4,177.9l74.4,74.4c10.9,10.9,28.6,10.9,39.4,0l74.4-74.4c10.9-10.9,10.9-28.6,0-39.4c-10.9-10.8-28.6-10.9-39.4,0
	l-26.7,26.7V27.9C653.5,12.4,641,0,625.6,0s-27.9,12.4-27.9,27.9v137.3l-26.7-26.7c-10.9-10.9-28.6-10.9-39.4,0
	c-10.8,10.9-10.9,28.6,0,39.4H531.4z"/>
</svg>
