<?xml version="1.0" encoding="utf-8"?>
<!-- Generator: Adobe Illustrator 18.1.1, SVG Export Plug-In . SVG Version: 6.00 Build 0)  -->
<svg version="1.1" id="Слой_1" xmlns="http://www.w3.org/2000/svg" xmlns:xlink="http://www.w3.org/1999/xlink" x="0px" y="0px"
	 viewBox="0 0 841.9 595.3" enable-background="new 0 0 841.9 595.3" xml:space="preserve">
<path d="M197.7,55.8c0-30.8,25-55.8,55.8-55.8v55.8v457.4l151.3-108c9.7-7,22.8-7,32.4,0l151.1,108V55.8H253.5V0h334.8
	c30.8,0,55.8,25,55.8,55.8v511.6c0,10.5-5.8,20-15.1,24.8s-20.5,4-29-2.1L420.9,462.2L241.8,590c-8.5,6-19.6,6.9-29,2.1
	c-9.3-4.8-15.1-14.3-15.1-24.8V55.8z"/>
</svg>
