<?xml version="1.0" encoding="utf-8"?>
<!-- Generator: Adobe Illustrator 18.1.1, SVG Export Plug-In . SVG Version: 6.00 Build 0)  -->
<svg version="1.1" id="Слой_1" xmlns="http://www.w3.org/2000/svg" xmlns:xlink="http://www.w3.org/1999/xlink" x="0px" y="0px"
	 viewBox="0 0 841.9 595.3" enable-background="new 0 0 841.9 595.3" xml:space="preserve">
<path fill="#FFFFFF" d="M374.4,0h-46.5c-30.8,0-55.8,25-55.8,55.8V186c0,41,33.4,74.4,74.4,74.4h148.8c41,0,74.4-33.4,74.4-74.4
	V55.8C569.8,25,544.8,0,514,0h-46.5v93c0,10.2-8.4,18.6-18.6,18.6H393c-10.2,0-18.6-8.4-18.6-18.6V0z M160.5,297.6
	c-41,0-74.4,33.4-74.4,74.4v148.8c0,41,33.4,74.4,74.4,74.4h186c41,0,74.4-33.4,74.4-74.4V372c0-41-33.4-74.4-74.4-74.4H300v93
	c0,10.2-8.4,18.6-18.6,18.6h-55.8c-10.2,0-18.6-8.4-18.6-18.6v-93H160.5z M495.4,595.3h186c41,0,74.4-33.4,74.4-74.4V372
	c0-41-33.4-74.4-74.4-74.4h-46.5v93c0,10.2-8.4,18.6-18.6,18.6h-55.8c-10.2,0-18.6-8.4-18.6-18.6v-93h-46.5
	c-17.4,0-33.5,5.9-46.2,16c5.7,12.1,9,25.6,9,39.8v186c0,14.2-3.3,27.7-9,39.8C461.9,589.4,477.9,595.3,495.4,595.3z"/>
</svg>
