<?xml version="1.0" encoding="utf-8"?>
<!-- Generator: Adobe Illustrator 18.1.1, SVG Export Plug-In . SVG Version: 6.00 Build 0)  -->
<svg version="1.1" id="Слой_1" xmlns="http://www.w3.org/2000/svg" xmlns:xlink="http://www.w3.org/1999/xlink" x="0px" y="0px"
	 viewBox="0 0 841.9 595.3" enable-background="new 0 0 841.9 595.3" xml:space="preserve">
<path fill="#FFFFFF" d="M407.6,157.3c8.3-7.3,11.5-18.8,7.2-29.1c-2.7-6.2-5.6-12.2-8.8-18l-3.6-6.3c-3.5-5.8-7.3-11.5-11.4-17
	c-6.6-8.8-18.3-11.7-28.7-8.3l-32.8,10.8c-12.4-10.2-26.7-18.6-42.1-24.3l-7.1-33.7c-2.2-10.8-10.6-19.4-21.5-20.7
	c-7.7-1-15.5-1.5-23.4-1.5h-0.8c-7.9,0-15.7,0.5-23.4,1.4c-10.9,1.3-19.3,10-21.5,20.7l-7.1,33.8C167.1,71,153,79.3,140.5,89.5
	l-32.9-10.7c-10.5-3.5-22.1-0.6-28.7,8.3c-4.1,5.5-7.9,11.2-11.5,17l-3.5,6.2c-3.3,5.8-6.2,11.9-8.8,18.1c-4.3,10.1-1,21.6,7.2,29.1
	l25.8,23c-1.3,7.8-2,15.9-2,24.2s0.7,16.4,2,24.3l-25.8,23c-8.3,7.3-11.5,18.8-7.2,29.1c2.7,6.2,5.6,12.2,8.8,18.1l3.5,6
	c3.5,5.9,7.3,11.5,11.5,17c6.6,8.8,18.3,11.7,28.7,8.3l32.8-10.8c12.4,10.2,26.7,18.6,42.1,24.3l7.1,33.8
	c2.2,10.8,10.6,19.4,21.5,20.7c7.8,0.9,15.7,1.4,23.7,1.4s15.9-0.5,23.7-1.4c10.9-1.3,19.3-10,21.5-20.7l7.1-33.8
	c15.5-5.8,29.6-14.1,42.1-24.3l32.8,10.8c10.5,3.5,22.1,0.6,28.7-8.3c4.1-5.5,7.9-11,11.4-17l3.6-6.3c3.3-5.8,6.2-11.9,8.8-18
	c4.3-10.1,1-21.6-7.2-29.1l-25.8-23c1.3-7.9,2-16,2-24.3c0-8.3-0.7-16.4-2-24.3l25.8-23L407.6,157.3z M179.1,204.6
	c0-30.8,25-55.8,55.8-55.8s55.8,25,55.8,55.8s-25,55.8-55.8,55.8S179.1,235.4,179.1,204.6z M635.7,581.9c7.3,8.3,18.8,11.5,29.1,7.2
	c6.2-2.7,12.2-5.6,18-8.8l6.3-3.6c5.8-3.5,11.5-7.3,17-11.4c8.8-6.6,11.7-18.3,8.3-28.7l-10.8-32.8c10.2-12.4,18.6-26.7,24.3-42.1
	l33.8-7.1c10.8-2.2,19.4-10.6,20.7-21.5c0.9-7.8,1.4-15.7,1.4-23.7c0-8-0.5-15.9-1.4-23.7c-1.3-10.9-10-19.3-20.7-21.5l-33.8-7.2
	c-5.8-15.5-14.1-29.6-24.3-42.1l10.8-32.8c3.5-10.5,0.6-22.1-8.3-28.7c-5.5-4.1-11.2-7.9-17-11.5l-6.2-3.5
	c-5.8-3.3-11.9-6.2-18.1-8.8c-10.1-4.3-21.6-1-29.1,7.2l-23,25.8c-7.9-1.3-16-2-24.3-2s-16.4,0.7-24.3,2l-23-25.8
	c-7.3-8.3-18.8-11.5-29.1-7.2c-6.2,2.7-12.2,5.6-18.1,8.8l-6,3.5c-5.9,3.5-11.5,7.3-17,11.5c-8.8,6.6-11.7,18.3-8.3,28.7l10.8,32.8
	c-10.2,12.4-18.6,26.7-24.3,42.1l-33.8,7c-10.8,2.2-19.4,10.6-20.7,21.5c-0.9,7.8-1.4,15.7-1.4,23.7c0,8,0.5,15.9,1.4,23.7
	c1.3,10.9,10,19.3,20.7,21.5l33.8,7.1c5.8,15.5,14.1,29.6,24.3,42.1l-10.8,32.8c-3.5,10.5-0.6,22.1,8.3,28.7c5.5,4.1,11,7.9,17,11.4
	l6.3,3.6c5.8,3.3,11.9,6.2,18,8.8c10.1,4.3,21.6,1,29.1-7.2l23-25.8c7.9,1.3,16,2,24.3,2c8.3,0,16.4-0.7,24.3-2l23,25.8L635.7,581.9
	z M588.4,353.4c30.8,0,55.8,25,55.8,55.8s-25,55.8-55.8,55.8l0,0c-30.8,0-55.8-25-55.8-55.8S557.5,353.4,588.4,353.4z"/>
</svg>
