<?xml version="1.0" encoding="utf-8"?>
<!-- Generator: Adobe Illustrator 18.1.1, SVG Export Plug-In . SVG Version: 6.00 Build 0)  -->
<svg version="1.1" id="Слой_1" xmlns="http://www.w3.org/2000/svg" xmlns:xlink="http://www.w3.org/1999/xlink" x="0px" y="0px"
	 viewBox="0 0 841.9 595.3" enable-background="new 0 0 841.9 595.3" xml:space="preserve">
<path fill="#FFFFFF" d="M365.4,28.1L306,87.5c-17.8,4.9-34.3,13.8-48.3,26.2l-30.9,27.6c-11.9,10.6-27.3,16.4-43.3,16.4h-23v148.8
	c23.7,0.7,46.3,10.3,63.1,27.2L265,375l8.1,8.1l0,0l31.4,31.4c7.2,7.2,19.1,7.2,26.3,0c2-2,3.5-4.3,4.3-6.7
	c3.3-9,10.8-15.7,20.1-17.8c9.3-2.1,19.1,0.7,25.8,7.6l12.6,12.3c13.5,13.5,35.3,13.5,48.7,0c6.3-6.3,9.7-14.3,10-22.6
	c0.5-10.2,6.5-19.3,15.8-23.7c9.3-4.4,20.1-3.5,28.4,2.4c10.9,7.8,26.2,6.7,35.9-3c10.9-10.9,10.9-28.6,0-39.4l-88.1-88.1
	l-41.6,38.4c-31.7,29.3-80.5,29.8-112.8,1c-36.9-32.8-37.7-90-1.9-123.8l81.5-77c31.9-30,73.9-46.7,117.8-46.7
	c42,0,82.5,15.5,113.8,43.3l35,31.2h45.2h46.5h46.5c10.2,0,18.6,8.4,18.6,18.6v241.8c0,20.6-16.6,37.2-37.2,37.2h-37.2
	c-13.7,0-25.8-7.4-32.2-18.6h-98.7c-4,7.8-9.2,15.2-15.7,21.7c-19.9,19.9-47.4,27.7-73.2,23.4c-4.2,8.5-9.9,16.4-17,23.5
	c-31.7,31.7-81.4,34.9-116.7,9.4c-29.2,24.2-72.7,22.7-100-4.8l-31.3-31.4l-8.1-8.1l-41.4-41.4c-6.4-6.4-14.8-10.1-23.7-10.8
	c0,20.5-16.7,37.1-37.2,37.1H86.1c-20.6,0-37.2-16.6-37.2-37.2V120.4c0-10.2,8.4-18.6,18.6-18.6H114h46.5h23c2.3,0,4.5-0.8,6.2-2.3
	l30.8-27.4c32.4-28.7,74.2-44.6,117.5-44.6h12C355.1,27.4,360.4,27.6,365.4,28.1z M681.4,325V157.6h-55.8c-6.9,0-13.5-2.6-18.5-7.1
	l-42.9-38.1c-21.2-18.8-48.5-29.2-76.9-29.2c-29.5,0-57.9,11.3-79.4,31.5l-81.5,77c-12,11.4-11.7,30.6,0.6,41.5
	c10.8,9.7,27.2,9.4,37.8-0.3l83.6-77.2c11.3-10.5,29-9.8,39.4,1.6c10.5,11.4,9.8,29-1.6,39.4l-0.9,0.9l86.5,86.5
	c11.6,11.6,19.2,25.9,22.6,40.8h87.1V325z M123.3,343.7c0-10.3-8.3-18.6-18.6-18.6s-18.6,8.3-18.6,18.6s8.3,18.6,18.6,18.6
	S123.3,353.9,123.3,343.7z M737.2,362.3c10.3,0,18.6-8.3,18.6-18.6s-8.3-18.6-18.6-18.6s-18.6,8.3-18.6,18.6
	S726.9,362.3,737.2,362.3z"/>
</svg>
