<?xml version="1.0" encoding="utf-8"?>
<!-- Generator: Adobe Illustrator 18.1.1, SVG Export Plug-In . SVG Version: 6.00 Build 0)  -->
<svg version="1.1" id="Слой_1" xmlns="http://www.w3.org/2000/svg" xmlns:xlink="http://www.w3.org/1999/xlink" x="0px" y="0px"
	 viewBox="0 0 841.9 595.3" enable-background="new 0 0 841.9 595.3" xml:space="preserve">
<path fill="#FFFFFF" d="M681.4,288.3v3.8l81-81c25.5-25.5,25.5-66.6,0-92.1l-90.8-90.7c-25.5-25.5-66.6-25.5-92.1,0L532.9,75
	c-3.1-0.3-6.4-0.6-9.7-0.6H393c-43.1,0-78.6,32.6-83.2,74.4h-0.5v139.5c0,25.7,20.8,46.5,46.5,46.5c25.7,0,46.5-20.8,46.5-46.5
	v-83.7v-0.1V186h18.6h158.1c0,0,0,0,0.1,0h9.2c51.4,0,93,41.6,93,93V288.3z M439.5,223.2v65.1c0,46.3-37.4,83.7-83.7,83.7
	s-83.7-37.4-83.7-83.7V150.4c-41.7,7.2-76.5,37.6-88.4,79.3l-19.2,67l-85.1,85.1c-25.5,25.5-25.5,66.6,0,92.1l90.8,90.8
	c25.5,25.5,66.6,25.5,92.1,0l43.8-43.8c1,0,2.1,0.1,3.1,0.1h186c30.8,0,55.8-25,55.8-55.8c0-6.5-1.2-12.8-3.1-18.6h3.1
	c30.8,0,55.8-25,55.8-55.8c0-14.9-5.8-28.4-15.3-38.4c29.9-5.8,52.4-32.1,52.6-63.7v-0.5c-0.1-35.8-29.2-64.9-65.1-64.9l0,0H439.5
	V223.2z"/>
</svg>
