<?xml version="1.0" encoding="utf-8"?>
<!-- Generator: Adobe Illustrator 18.1.1, SVG Export Plug-In . SVG Version: 6.00 Build 0)  -->
<svg version="1.1" id="Слой_1" xmlns="http://www.w3.org/2000/svg" xmlns:xlink="http://www.w3.org/1999/xlink" x="0px" y="0px"
	 viewBox="0 0 841.9 595.3" enable-background="new 0 0 841.9 595.3" xml:space="preserve">
<path fill="#FFFFFF" d="M607,241.8c0,53.4-17.3,102.7-46.5,142.7l147.2,147.3c14.5,14.5,14.5,38.1,0,52.7
	c-14.5,14.5-38.1,14.5-52.7,0L507.8,437.2c-40,29.3-89.3,46.5-142.7,46.5c-133.6,0-241.8-108.2-241.8-241.8S231.5,0,365.1,0
	S607,108.2,607,241.8z M365.1,409.3c92.5,0,167.4-75,167.4-167.4s-75-167.4-167.4-167.4s-167.4,75-167.4,167.4
	S272.7,409.3,365.1,409.3z"/>
</svg>
