<?xml version="1.0" encoding="utf-8"?>
<!-- Generator: Adobe Illustrator 18.1.1, SVG Export Plug-In . SVG Version: 6.00 Build 0)  -->
<svg version="1.1" id="Слой_1" xmlns="http://www.w3.org/2000/svg" xmlns:xlink="http://www.w3.org/1999/xlink" x="0px" y="0px"
	 viewBox="0 0 841.9 595.3" enable-background="new 0 0 841.9 595.3" xml:space="preserve">
<path fill="#FFFFFF" d="M671.6,25.2c-25.5-25.5-66.6-25.5-92.1,0l-35,34.9l113.8,113.8l35-35c25.5-25.5,25.5-66.6,0-92.1L671.6,25.2
	z M323.7,281c-7.1,7.1-12.6,15.8-15.7,25.5l-34.4,103.2c-3.4,10-0.7,21,6.7,28.6c7.4,7.6,18.5,10.1,28.6,6.7l103.2-34.4
	c9.5-3.1,18.3-8.6,25.5-15.7l194.5-194.6L518.3,86.4L323.7,281z M234.9,74.4c-61.6,0-111.6,50-111.6,111.6v297.6
	c0,61.6,50,111.6,111.6,111.6h297.6c61.6,0,111.6-50,111.6-111.6V372c0-20.6-16.6-37.2-37.2-37.2s-37.2,16.6-37.2,37.2v111.6
	c0,20.6-16.6,37.2-37.2,37.2H234.9c-20.6,0-37.2-16.6-37.2-37.2V186c0-20.6,16.6-37.2,37.2-37.2h111.6c20.6,0,37.2-16.6,37.2-37.2
	s-16.6-37.2-37.2-37.2H234.9z"/>
</svg>
