<?xml version="1.0" encoding="utf-8"?>
<!-- Generator: Adobe Illustrator 18.1.1, SVG Export Plug-In . SVG Version: 6.00 Build 0)  -->
<svg version="1.1" id="Слой_1" xmlns="http://www.w3.org/2000/svg" xmlns:xlink="http://www.w3.org/1999/xlink" x="0px" y="0px"
	 viewBox="0 0 841.9 595.3" enable-background="new 0 0 841.9 595.3" xml:space="preserve">
<path fill="#FFFFFF" d="M179.1,111.6c30.8,0,55.8-25,55.8-55.8S209.9,0,179.1,0s-55.8,25-55.8,55.8S148.3,111.6,179.1,111.6z
	 M160.5,148.8c-41,0-74.4,33.4-74.4,74.4V372c0,20.6,16.6,37.2,37.2,37.2c11.4,0,21.5-5.1,28.4-13l27.9,168
	c3.4,20.2,22.6,33.9,42.8,30.6c20.2-3.4,33.9-22.6,30.6-42.8l-23.7-142.8h18.3l34.9,156.8c4.4,20.1,24.3,32.7,44.4,28.3
	s32.7-24.3,28.3-44.4l-66.6-300l135.2,62.6c0.6,0.3,1.3,0.6,1.9,0.8c10,4.2,20.9,3.6,30.1-0.8c4-1.9,7.7-4.5,10.8-7.8
	c3.6-3.7,6.4-8.1,8.3-13.3c0.1-0.3,0.2-0.8,0.3-1.2l2.9-8.7c6.6-19.9,21.3-35.9,40.3-44.4l9.3-4.1c1.2-0.5,2.2-0.9,3.4-1.4
	l-19.6,73.8c-6.5,24.5-0.1,50.7,17.1,69.4l82.2,89.6L636.2,567c5,19.9,25.2,32.1,45.1,27.1c19.9-5,32.1-25.2,27.1-45.1l-26.7-107.1
	c-2.2-9.1-6.7-17.3-13-24.2L611,355l22.4-76.2l11.2,26.7c5.1,12.3,14.5,22.4,26.5,28.5l31,15.5c18.4,9.2,40.7,1.7,49.9-16.6
	c9.2-18.4,1.7-40.7-16.6-49.9l-25-12.4l-17.8-42.8c-20-47.8-66.7-78.9-118.6-78.9c-26.5,0-52.7,5.6-76.9,16.3l-9.3,4.1
	c-28.4,12.7-51.9,33.7-67.6,60l-151.4-70c-14.6-6.9-30.7-10.3-46.9-10.3H160.5z M625.6,111.6c30.8,0,55.8-25,55.8-55.8
	S656.4,0,625.6,0l0,0c-30.8,0-55.8,25-55.8,55.8S594.8,111.6,625.6,111.6z M492.7,390.2l-29.1,72.5l-69.1,69.1
	c-14.5,14.5-14.5,38.1,0,52.7c14.5,14.5,38.1,14.5,52.7,0l71.7-71.7c5.3-5.3,9.5-11.7,12.3-18.7l16.9-42.1l-47.3-51.6
	c-2.9-3.1-5.6-6.5-8.1-10L492.7,390.2z"/>
</svg>
