<?xml version="1.0" encoding="utf-8"?>
<!-- Generator: Adobe Illustrator 18.1.1, SVG Export Plug-In . SVG Version: 6.00 Build 0)  -->
<svg version="1.1" id="Слой_1" xmlns="http://www.w3.org/2000/svg" xmlns:xlink="http://www.w3.org/1999/xlink" x="0px" y="0px"
	 viewBox="0 0 841.9 595.3" enable-background="new 0 0 841.9 595.3" xml:space="preserve">
<path fill="#FFFFFF" d="M132.6,102.3c0-36,29.2-65.1,65.1-65.1s65.1,29.2,65.1,65.1s-29.2,65.1-65.1,65.1S132.6,138.3,132.6,102.3z
	 M123.3,285.7c-11.6,13-18.6,30.3-18.6,49.2c0,18.8,7,36.2,18.6,49.2V285.7z M291.2,228.3c-34.5,30.6-56.3,75.3-56.3,125.1
	c0,39.9,14,76.5,37.2,105.2v25c0,20.6-16.6,37.2-37.2,37.2h-74.4c-20.6,0-37.2-16.6-37.2-37.2v-31.2
	c-43.9-20.9-74.4-65.7-74.4-117.7c0-72,58.2-130.2,130.2-130.2h37.2c27.9,0,53.7,8.7,74.9,23.6V228.3z M569.8,483.7v-25
	C593,430,607,393.3,607,353.4c0-49.8-21.7-94.5-56.3-125.2c21.2-14.9,47-23.6,74.9-23.6h37.2c72,0,130.2,58.2,130.2,130.2
	c0,52-30.5,96.7-74.4,117.7v31.2c0,20.6-16.6,37.2-37.2,37.2H607C586.4,520.9,569.8,504.2,569.8,483.7z M579.1,102.3
	c0-36,29.2-65.1,65.1-65.1c36,0,65.1,29.2,65.1,65.1s-29.2,65.1-65.1,65.1C608.2,167.4,579.1,138.3,579.1,102.3z M718.6,285.7v98.5
	c11.6-13.1,18.6-30.3,18.6-49.2c0-18.8-7-36.2-18.6-49.2V285.7z M420.9,37.2c41.1,0,74.4,33.3,74.4,74.4S462,186,420.9,186
	s-74.4-33.3-74.4-74.4S379.8,37.2,420.9,37.2z M327.9,353.4c0,18.8,7,36,18.6,49.2v-98.4C334.9,317.4,327.9,334.6,327.9,353.4z
	 M495.4,304.3v98.5c11.6-13.1,18.6-30.3,18.6-49.2c0-18.8-7-36.2-18.6-49.2V304.3z M569.8,353.4c0,52-30.5,96.7-74.4,117.7v49.8
	c0,20.6-16.6,37.2-37.2,37.2h-74.4c-20.6,0-37.2-16.6-37.2-37.2v-49.8c-43.9-20.9-74.4-65.7-74.4-117.7c0-72,58.2-130.2,130.2-130.2
	h37.2C511.5,223.2,569.8,281.5,569.8,353.4z"/>
</svg>
