<?xml version="1.0" encoding="utf-8"?>
<!-- Generator: Adobe Illustrator 18.1.1, SVG Export Plug-In . SVG Version: 6.00 Build 0)  -->
<svg version="1.1" id="Слой_1" xmlns="http://www.w3.org/2000/svg" xmlns:xlink="http://www.w3.org/1999/xlink" x="0px" y="0px"
	 viewBox="0 0 841.9 595.3" enable-background="new 0 0 841.9 595.3" xml:space="preserve">
<path fill="#FFFFFF" d="M458.2,37.2c0-20.6-16.6-37.2-37.2-37.2s-37.2,16.6-37.2,37.2v260.4c0,20.6,16.6,37.2,37.2,37.2
	c20.6,0,37.2-16.6,37.2-37.2V37.2z M290.1,140.2c15.8-13.1,17.9-36.6,4.8-52.4C281.8,72,258.3,69.9,242.5,83
	c-61.4,51.2-100.6,128.4-100.6,214.6c0,154.1,125,279,279,279s279-125,279-279c0-86.3-39.3-163.5-100.7-214.6
	c-15.8-13.1-39.3-10.9-52.4,4.8c-13.1,15.7-10.9,39.3,4.8,52.4c45.2,37.6,73.8,94.2,73.8,157.4c0,113-91.6,204.6-204.6,204.6
	s-204.6-91.6-204.6-204.6c0-63.2,28.7-119.9,73.8-157.4H290.1z"/>
</svg>
