<?xml version="1.0" encoding="utf-8"?>
<!-- Generator: Adobe Illustrator 18.1.1, SVG Export Plug-In . SVG Version: 6.00 Build 0)  -->
<svg version="1.1" id="Слой_1" xmlns="http://www.w3.org/2000/svg" xmlns:xlink="http://www.w3.org/1999/xlink" x="0px" y="0px"
	 viewBox="0 0 841.9 595.3" enable-background="new 0 0 841.9 595.3" xml:space="preserve">
<path fill="#FFFFFF" d="M376.6,123.1l142.8,142.8c8.4,8.4,13.1,19.9,13.1,31.7s-4.8,23.4-13.1,31.7L376.6,472.2
	c-7.4,7.4-17.4,11.5-27.9,11.5c-21.7,0-39.4-17.7-39.4-39.4V372H160.5c-20.6,0-37.2-16.6-37.2-37.2v-74.4
	c0-20.6,16.6-37.2,37.2-37.2h148.8V151c0-21.7,17.7-39.4,39.4-39.4C359.2,111.6,369.2,115.8,376.6,123.1z M532.6,483.7H607
	c20.6,0,37.2-16.6,37.2-37.2V148.8c0-20.6-16.6-37.2-37.2-37.2h-74.4c-20.6,0-37.2-16.6-37.2-37.2s16.6-37.2,37.2-37.2H607
	c61.6,0,111.6,50,111.6,111.6v297.6c0,61.6-50,111.6-111.6,111.6h-74.4c-20.6,0-37.2-16.6-37.2-37.2S512,483.7,532.6,483.7z"/>
</svg>
