<?xml version="1.0" encoding="utf-8"?>
<!-- Generator: Adobe Illustrator 18.1.1, SVG Export Plug-In . SVG Version: 6.00 Build 0)  -->
<svg version="1.1" id="Слой_1" xmlns="http://www.w3.org/2000/svg" xmlns:xlink="http://www.w3.org/1999/xlink" x="0px" y="0px"
	 viewBox="0 0 841.9 595.3" enable-background="new 0 0 841.9 595.3" xml:space="preserve">
<path fill="#FFFFFF" d="M234.9,93c-10.2,0-18.6,8.4-18.6,18.6v372.1c0,10.2,8.4,18.6,18.6,18.6H607c10.2,0,18.6-8.4,18.6-18.6V111.6
	c0-10.2-8.4-18.6-18.6-18.6H234.9z M160.5,111.6c0-41,33.4-74.4,74.4-74.4H607c41,0,74.4,33.4,74.4,74.4v372.1
	c0,41-33.4,74.4-74.4,74.4H234.9c-41,0-74.4-33.4-74.4-74.4V111.6z M552.3,243L403.5,391.8c-10.9,10.9-28.6,10.9-39.4,0l-74.4-74.4
	c-10.9-10.9-10.9-28.6,0-39.4c10.9-10.8,28.6-10.9,39.4,0l54.6,54.6l129.1-129.2c10.9-10.9,28.6-10.9,39.4,0
	c10.8,10.9,10.9,28.6,0,39.4L552.3,243z"/>
</svg>
