<?xml version="1.0" encoding="utf-8"?>
<!-- Generator: Adobe Illustrator 18.1.1, SVG Export Plug-In . SVG Version: 6.00 Build 0)  -->
<svg version="1.1" id="Слой_1" xmlns="http://www.w3.org/2000/svg" xmlns:xlink="http://www.w3.org/1999/xlink" x="0px" y="0px"
	 viewBox="-20 -102.7 800 800" enable-background="new -20 -102.7 800 800" xml:space="preserve">
<title>build-tools/task-runners</title>
<desc>Created with Sketch.</desc>
<path id="Shape" d="M517.7,72.8h38v25.3c-26.9,0-52.8,10.7-71.9,29.6c-2.7-5.3-4.1-11.1-4.2-17C479.7,89.8,496.7,72.8,517.7,72.8z"
	/>
<path id="Shape_1_" fill="#FFD33F" d="M555.7,110.8c0.1,20.9-16.9,37.9-37.8,38c-14.4,0-27.6-8.1-34-21c19.1-19,44.9-29.6,71.9-29.6
	L555.7,110.8z"/>
<path id="Shape_2_" fill="#EA3836" d="M327.7,368.4l-69.8,62.8c-8.3,7.5-9.5,20-2.8,29c7.2,9.5,20.7,11.5,30.2,4.3
	c0.2-0.2,0.5-0.4,0.7-0.6l75.5-61.8l50.7-50.7l67.6,50.7l-13.5,94.5c-1.6,11.4,6.3,21.9,17.6,23.5c1,0.1,1.9,0.2,2.9,0.2h0.5
	c10.3,0.1,19.1-7.3,21-17.4c6.9-36.5,22.1-117.8,22.1-117.8l-67.6-59.1l-76-42.2L327.7,368.4z"/>
<polygon id="Shape_3_" fill="#91CECE" points="579.9,242.3 564.2,250.2 513.5,182.6 462.8,148.8 353,131.9 305.6,179.1 331.1,208.2 
	369.9,174.1 429,191 386.8,283.9 462.8,326.2 496.6,233.3 555.7,300.8 596.7,282.7 "/>
<g id="Group" transform="translate(13.771930, 9.649123)">
	<path id="Shape_4_" fill="#FFD33F" d="M610.3,238.2l-0.2-0.5c-4.5-11.4-17.4-17-28.8-12.5c-0.6,0.2-1.2,0.5-1.8,0.8l-13.3,6.7
		L583,273l16-7.1C609.6,261.3,614.6,249,610.3,238.2z"/>
	<path id="Shape_5_" fill="#FFD33F" d="M276.3,185c-7.3,7.2-7.5,18.9-0.3,26.3c6.9,7.1,18.2,7.5,25.6,0.9l15.7-13.7l-25.4-29
		L276.3,185z"/>
</g>
<g id="Group_1_" transform="translate(0.000000, 3.859649)">
	<rect id="Rectangle-path" x="184.1" y="111.2" width="109.8" height="16.9"/>
	<rect id="Rectangle-path_1_" x="150.3" y="111.2" width="16.9" height="16.9"/>
	<rect id="Rectangle-path_2_" x="217.9" y="178.7" width="16.9" height="16.9"/>
	<rect id="Rectangle-path_3_" x="133.4" y="178.7" width="67.6" height="16.9"/>
	<rect id="Rectangle-path_4_" x="175.7" y="246.3" width="84.5" height="16.9"/>
	<rect id="Rectangle-path_5_" x="150.3" y="313.9" width="143.6" height="16.9"/>
	<rect id="Rectangle-path_6_" x="167.2" y="381.4" width="67.6" height="16.9"/>
	<rect id="Rectangle-path_7_" x="133.4" y="381.4" width="16.9" height="16.9"/>
	<rect id="Rectangle-path_8_" x="150.3" y="449" width="59.1" height="16.9"/>
</g>
<path id="Shape_6_" fill="#FFAC3E" d="M291,221.8c7,6.1,17.4,6.1,24.4,0l15.6-13.6l-9.7-11.1L291,221.8z"/>
<g id="Group_2_" transform="translate(17.105263, 7.719298)">
	<polygon id="Shape_7_" fill="#83B2B7" points="352.8,149.5 304.2,189.3 313.9,200.4 352.8,166.4 411.9,183.3 420.4,166.4 	"/>
	<polygon id="Shape_8_" fill="#83B2B7" points="543.8,272.5 487.9,208.7 479.5,225.5 538.6,293.1 579.6,275 573.1,259.4 	"/>
</g>
<path id="Shape_9_" fill="#FFAC3E" d="M590.2,267l6.5,15.6l16-7.1c9.3-4.1,14.5-14.2,12.3-24.2L590.2,267z"/>
<polygon id="Shape_10_" fill="#83B2B7" points="424.1,304.7 462.8,326.2 496.6,233.3 505,216.4 "/>
<g id="Group_3_" transform="translate(30.350877, 39.035088)">
	<path id="Shape_11_" fill="#EA3836" d="M443.1,475.4c-1.9-1.8-3.7-3.6-5.2-5.5C439.5,471.7,441.3,473.6,443.1,475.4z"/>
	<path id="Shape_12_" fill="#EA3836" d="M448.1,481.5c-1.9-1.7-3.8-3.5-5.5-5.5C444.4,478,446.2,479.8,448.1,481.5z"/>
	<path id="Shape_13_" fill="#EA3836" d="M445.5,478.7c-2-1.7-3.6-3.6-5.5-5.5C441.8,475.2,443.5,477,445.5,478.7z"/>
	<path id="Shape_14_" fill="#EA3836" d="M439.6,471.6c-1.1-1.8-2.3-3.6-3.2-5.5C437.3,468,438.5,469.8,439.6,471.6z"/>
	<path id="Shape_15_" fill="#EA3836" d="M436.9,467.5c-0.3-1.8-1-3.6-1.2-5.5C435.9,463.9,436.5,465.7,436.9,467.5z"/>
	<path id="Shape_16_" fill="#EA3836" d="M451.4,483.8c-2-1.2-4-3-5.7-5.5C447.4,480.7,449.4,482.6,451.4,483.8z"/>
</g>
<g id="Group_4_" transform="translate(11.140351, 21.140351)">
	<path id="Shape_17_" fill="#D62121" d="M461.4,491.1c-2-1.8-3.7-3.6-5.2-5.5C457.7,487.5,459.4,489.3,461.4,491.1z"/>
	<path id="Shape_18_" fill="#D62121" d="M466,498.2c-1.9-1.8-3.8-3.6-5.5-5.5C462.4,494.6,464.1,496.3,466,498.2z"/>
	<path id="Shape_19_" fill="#D62121" d="M469,499.9c-1.8-1.5-3.8-2.8-5.5-4.5C465.3,497.1,467.2,498.4,469,499.9z"/>
	<path id="Shape_20_" fill="#D62121" d="M458,486.8c-1.3-1.8-2.3-3.6-2.9-5.5C455.7,483.2,456.7,485,458,486.8z"/>
	<path id="Shape_21_" fill="#D62121" d="M455.2,481.1c-0.6-1.8-0.3-3.7,0.8-5.5C454.9,477.4,454.6,479.2,455.2,481.1z"/>
	<path id="Shape_22_" fill="#D62121" d="M463.5,494.9c-2-1.8-3.8-3.6-5.5-5.5C459.9,491.3,461.5,493.1,463.5,494.9z"/>
	<polygon id="Shape_23_" fill="#D62121" points="470.7,498.6 470.7,498.6 470.6,498.6 	"/>
	<path id="Shape_24_" fill="#D62121" d="M451.7,305l-38-21.1l88.7,88.7L472.9,499c0.9,0.2,1.8,0.3,2.7,0.3h0.5
		c10.3,0.1,19.1-7.3,21-17.4c6.9-36.5,22.1-117.8,22.1-117.8L451.7,305z"/>
	<path id="Shape_25_" fill="#D62121" d="M333.4,372.6L245,440.2c7.6,8.8,20.8,9.9,29.8,2.6l75.5-61.8l50.7-50.7l-16.9-8.4
		L333.4,372.6z"/>
</g>
<path id="Shape_26_" fill="#FFAC3E" d="M547.3,98.5v3.8c0,21-17,38-38,38c-8,0-15.7-2.6-22.1-7.3c12.2,17,35.8,20.9,52.8,8.7
	c9.9-7.1,15.8-18.7,15.8-30.9l0-12.7C552.9,98.1,550.1,98.3,547.3,98.5z"/>
<path id="Shape_27_" fill="#202033" d="M555.7,72.8c0.4,9.3-2.6,18.5-8.4,25.8c2.8-0.2,5.6-0.4,8.4-0.4V72.8z"/>
</svg>
