<?xml version="1.0" encoding="utf-8"?>
<!-- Generator: Adobe Illustrator 18.1.1, SVG Export Plug-In . SVG Version: 6.00 Build 0)  -->
<svg version="1.1" id="Слой_1" xmlns="http://www.w3.org/2000/svg" xmlns:xlink="http://www.w3.org/1999/xlink" x="0px" y="0px"
	 viewBox="0 0 841.9 595.3" enable-background="new 0 0 841.9 595.3" xml:space="preserve">
<path fill="#83AADB" d="M305.5,196c-5.3-12.1-10.6-24.2-16-36.3c-1.8-4-3.7-7.9-5.2-12c-0.6-1.5-0.3-3.4-0.4-5.1
	c1.5,0.6,3.3,0.8,4.5,1.8c23.3,19.7,46.5,39.5,69.8,59.2c13.3,11.3,26.7,22.6,40.2,34.2c0.8-1.4,1.5-2.5,2.1-3.7
	c5.8-11.2,11.7-22.3,17.5-33.6c1.1-2.2,2.2-2.9,4.7-1.6c17.6,9.4,35.3,18.7,53,28.1c0.6,0.3,1.2,0.5,1.6,0.9
	c0.7,0.9,1.3,1.9,1.9,2.8c-1,0.6-2,1.5-3,1.6c-8.2,0.6-16.5,1.1-24.7,1.6c-7.2,0.4-14.4,0.9-21.9,1.4c1.4,8.1,2.6,15.8,4,23.5
	c0.8,4,0.1,6.7-3.4,9.6c-22,17.5-43.4,35.8-65.6,53c-22.5,17.4-45.8,33.9-68.8,50.7c-5,3.7-10,7.5-15.1,11.1
	c-1.6,1.1-3.3,3.7-5.3,1.5c-0.5-0.6,1-3.7,2.2-5.1c20.4-23.2,40.8-46.4,61.3-69.4c2-2.3,2.2-3.8,0.5-6.4
	c-26.4-41.1-52.6-82.3-78.9-123.5c-0.9-1.5-2-2.9-2.8-4.5c-0.5-1.1-0.5-2.5-0.7-3.7c1.4,0.1,3-0.3,4,0.3c13.5,7.3,27,14.7,40.4,22.1
	c1.2,0.6,2.4,1.3,3.6,1.9C305.1,196.4,305.3,196.2,305.5,196z M362.5,213.9c-0.1,0.3-0.5,1-0.6,1.7c-4,21.8-8.1,43.7-12,65.6
	c-0.4,2.2,0,4.8,0.8,6.8c3.6,8.6,7.5,17.2,11.3,25.7c0.4,1,1,1.9,1.7,3.1c21.6-17.5,42.9-34.9,63.5-51.7
	C405.5,248,384,231,362.5,213.9z M344.4,304.4c0.9-1.2,1.3-2.2,2-2.8c3.2-2.7,3.5-5.3,1.7-9.4c-12.8-28.3-25.2-56.8-37.8-85.1
	c-0.9-2-2.7-4-4.6-5c-12.3-7-24.7-13.7-37-20.5c-1-0.5-2-1-3-1.5c-0.1,0.2-0.2,0.4-0.3,0.6C291.6,221.7,317.7,262.7,344.4,304.4z
	 M358.6,210.8c-14.9-2-29.4-3.9-44.7-6c10.8,24.4,21.3,48.1,31.7,71.8c0.3-0.1,0.6-0.1,0.9-0.2C350.5,254.7,354.5,233.1,358.6,210.8
	z M352.7,205.7c0.1-0.3,0.1-0.6,0.2-0.9c-20.2-17.2-40.4-34.3-60.6-51.5c-0.3,0.3-0.5,0.6-0.8,0.8c6.3,14.3,12.8,28.6,18.9,43
	c1.1,2.6,2.7,3.5,5.3,3.8c5.6,0.7,11.1,1.5,16.7,2.2C339.2,204,346,204.8,352.7,205.7z M293.6,367.6c1.4-0.3,1.7-0.3,2-0.5
	c20.9-15.4,41.8-30.7,62.7-46.1c0.7-0.5,1.4-1.8,1.2-2.4c-2.3-5.6-4.8-11.1-7.4-17.1C332.4,323.7,313.3,345.3,293.6,367.6z
	 M429.6,260.4c-3.4-18.2-6.5-35.3-9.8-52.7c-0.7,0.6-1.1,0.7-1.2,1c-5.3,10-10.6,20-15.7,30.2c-0.4,0.8,0.4,2.8,1.2,3.4
	c4.8,3.7,9.9,7.2,14.8,10.7C422.2,255.3,425.4,257.5,429.6,260.4z M428.5,231.3c13.6-0.8,26.6-1.6,39.7-2.4c0-0.3,0-0.6,0.1-0.8
	c-14.7-7.8-29.4-15.5-44.9-23.7C425.2,213.7,426.8,222.2,428.5,231.3z"/>
<path fill="#BED9F3" d="M362.5,213.9c21.5,17.1,43,34.1,64.7,51.3c-20.7,16.8-42,34.1-63.5,51.7c-0.7-1.2-1.2-2.2-1.7-3.1
	c-3.8-8.6-7.7-17.1-11.3-25.7c-0.9-2.1-1.2-4.7-0.8-6.8c3.9-21.9,7.9-43.7,12-65.6C362,214.9,362.4,214.3,362.5,213.9z"/>
<path fill="#BED9F3" d="M344.4,304.4c-26.6-41.7-52.8-82.7-79-123.7c0.1-0.2,0.2-0.4,0.3-0.6c1,0.5,2,1,3,1.5
	c12.4,6.8,24.8,13.5,37,20.5c1.9,1.1,3.7,3,4.6,5c12.7,28.4,25.1,56.8,37.8,85.1c1.8,4,1.5,6.7-1.7,9.4
	C345.7,302.2,345.2,303.2,344.4,304.4z"/>
<path fill="#BED9F3" d="M358.6,210.8c-4.1,22.3-8.1,43.9-12.1,65.6c-0.3,0.1-0.6,0.1-0.9,0.2c-10.5-23.7-20.9-47.4-31.7-71.8
	C329.2,206.8,343.7,208.8,358.6,210.8z"/>
<path fill="#BED9F3" d="M352.7,205.7c-6.8-0.9-13.5-1.7-20.3-2.6c-5.6-0.7-11.1-1.5-16.7-2.2c-2.5-0.3-4.2-1.2-5.3-3.8
	c-6.2-14.4-12.6-28.7-18.9-43c0.3-0.3,0.5-0.6,0.8-0.8c20.2,17.2,40.4,34.3,60.6,51.5C352.9,205.1,352.8,205.4,352.7,205.7z"/>
<path fill="#BED9F3" d="M293.6,367.6c19.7-22.3,38.8-43.9,58.4-66.1c2.7,6.1,5.1,11.6,7.4,17.1c0.2,0.5-0.5,1.9-1.2,2.4
	c-20.9,15.4-41.8,30.8-62.7,46.1C295.3,367.3,294.9,367.3,293.6,367.6z"/>
<path fill="#BED9F3" d="M429.6,260.4c-4.2-2.9-7.4-5.1-10.6-7.4c-5-3.5-10-7-14.8-10.7c-0.8-0.6-1.6-2.6-1.2-3.4
	c5.1-10.1,10.4-20.1,15.7-30.2c0.1-0.3,0.5-0.4,1.2-1C423,225.1,426.2,242.2,429.6,260.4z"/>
<path fill="#BED9F3" d="M428.5,231.3c-1.7-9-3.4-17.6-5.2-27c15.4,8.2,30.2,15.9,44.9,23.7c0,0.3,0,0.6-0.1,0.8
	C455.1,229.6,442.1,230.4,428.5,231.3z"/>
</svg>
